# xmcd
#
# Track frame offsets: 
#        150
#        20484
#        39001
#        71880
#        91232
#        109218
#        129183
#        162845
#        180660
#
# Disc length: 2630 seconds
#
# Revision: 0
# Processed by: cddbd v1.5.2PL0 Copyright (c) Steve Scherf et al.
# Submitted via: ExactAudioCopy v0.99pb4
#
DISCID=6a0a4409
DTITLE=Edwin Starr - Clean (Expanded Edition)
DYEAR=1978
DGENRE=Soul
TTITLE0=I'm So Into You
TTITLE1=Jealous
TTITLE2=Contact
TTITLE3=Storm Clouds On The Way
TTITLE4=Don't Waste Your Time
TTITLE5=Music Brings Out The Beast In Me
TTITLE6=Working Song
TTITLE7=I'm So Into You (Single Version)
TTITLE8=Contact (Single Version)
EXTD=
EXTT0=
EXTT1=
EXTT2=
EXTT3=
EXTT4=
EXTT5=
EXTT6=
EXTT7=
EXTT8=
PLAYORDER=
